<?xml version="1.0" encoding="utf-8"?>
<!-- Generator: Adobe Illustrator 25.0.1, SVG Export Plug-In . SVG Version: 6.00 Build 0)  -->
<svg version="1.1" id="Calque_1" xmlns="http://www.w3.org/2000/svg" xmlns:xlink="http://www.w3.org/1999/xlink" x="0px" y="0px"
	 viewBox="0 0 153 64" style="enable-background:new 0 0 153 64;" xml:space="preserve">
<style type="text/css">
	.st0{fill:#EE7002;}
</style>
<path d="M0.4,15.4c3.6-0.6,8.9-1,14.8-1c7.3,0,12.4,1.1,15.9,3.9c2.9,2.3,4.5,5.8,4.5,10.3c0,6.3-4.5,10.6-8.7,12.1v0.2
	c3.4,1.4,5.3,4.7,6.6,9.2c1.5,5.6,3.1,12,4,13.9H26.2c-0.8-1.4-2-5.4-3.4-11.5c-1.3-6.1-3.4-7.8-8-7.9h-3.4V64h-11
	C0.4,64,0.4,15.4,0.4,15.4z M11.4,36.6h4.4c5.6,0,8.8-2.8,8.8-7.1c0-4.5-3.1-6.8-8.2-6.9c-2.7,0-4.2,0.2-5,0.4
	C11.4,23,11.4,36.6,11.4,36.6z"/>
<path class="st0" d="M57.2,0.1l0.3,36.1c0,10.8,4.2,16.3,11.5,16.2c7.5-0.1,11.5-5.3,11.4-16.4L80.1-0.1l14.2-0.1L94.5,35
	c0.2,19.4-9.5,28.7-25.9,28.8C52.8,64,43.4,55.3,43.2,35.2l-0.3-35L57.2,0.1z"/>
<path class="st0" d="M136,63.8l-5.8-11.5c-2.4-4.4-3.9-7.8-5.7-11.4h-0.2c-1.3,3.7-2.9,7-4.9,11.4l-5.3,11.5H97.7l18.4-32.2L98.4,0
	H115l5.6,11.6c1.9,3.9,3.3,7,4.8,10.6h0.2c1.5-4.1,2.7-6.9,4.3-10.6L135.3,0h16.5l-18,31.1l18.9,32.6H136V63.8z"/>
</svg>
